<svg width="18" height="1229" viewBox="0 0 18 1229" fill="none" xmlns="http://www.w3.org/2000/svg">
<rect x="1" y="2" width="16" height="1227" rx="8" fill="#FD9C42"/>
<path d="M10.5 13.5917C10.5 12.7632 9.82843 12.0917 9 12.0917C8.17157 12.0917 7.5 12.7632 7.5 13.5917H10.5ZM7.5 1226.32C7.5 1227.15 8.17157 1227.82 9 1227.82C9.82843 1227.82 10.5 1227.15 10.5 1226.32H7.5ZM7.5 13.5917L7.5 1226.32H10.5L10.5 13.5917H7.5Z" fill="white"/>
<path fill-rule="evenodd" clip-rule="evenodd" d="M9 11.8089C5.13401 11.8089 2 9.61308 2 6.90443C2 4.19579 5.13401 2 9 2C12.866 2 16 4.19579 16 6.90443C16 9.61308 12.866 11.8089 9 11.8089Z" fill="#FCC707" stroke="#FFE587" stroke-width="3"/>
<path fill-rule="evenodd" clip-rule="evenodd" d="M9 1227.22C5.13401 1227.22 2 1225.22 2 1222.76C2 1220.3 5.13401 1218.3 9 1218.3C12.866 1218.3 16 1220.3 16 1222.76C16 1225.22 12.866 1227.22 9 1227.22Z" fill="#EC6509" stroke="#FCC707" stroke-width="3"/>
</svg>
